# xmcd
#
# Track frame offsets: 
#        150
#        16744
#        38934
#        56433
#        122007
#        166905
#        188885
#        237996
#
# Disc length: 3612 seconds
#
# Revision: 0
# Processed by: cddbd v1.5.2PL0 Copyright (c) Steve Scherf et al.
# Submitted via: ExactAudioCopy v0.99pb5
#
DISCID=5e0e1a08
DTITLE=Cream - Live In Europe [CD1]
DYEAR=1967
DGENRE=Blues
TTITLE0=Tales Of Brave Ulysses
TTITLE1=Sunshine Of Your love
TTITLE2=We're Going Wrong
TTITLE3=Spoonful
TTITLE4=Stepping Out
TTITLE5=Traintime
TTITLE6=Toad
TTITLE7=I'm So Glad
EXTD=
EXTT0=
EXTT1=
EXTT2=
EXTT3=
EXTT4=
EXTT5=
EXTT6=
EXTT7=
PLAYORDER=
